# xmcd CD database file
#
# Track frame offsets:
#	150
#	17285
#	41380
#	52677
#
# Disc length: 927 seconds
#
# Revision: 0
# Processed by: cddbd v1.5.1PL0 Copyright (c) Steve Scherf et al.
# Submitted via: CDex 1.51
#
DISCID=1b039d04
DTITLE=Sleepin’JohnnyFish - ひかりひとつひらり
DYEAR=2004
DGENRE=J-POP
TTITLE0=ひかりひとつひらり
TTITLE1=とりとひと
TTITLE2=一と一り
TTITLE3=ひかりひとつひらり（からおけ）
EXTD=YEAR: 2004
EXTT0=
EXTT1=
EXTT2=
EXTT3=
PLAYORDER=
